<svg xmlns="http://www.w3.org/2000/svg" enable-background="new 0 0 1000 1000" version="1.1" xml:space="preserve" viewBox="196.5 259.68 607 479.32">
<style type="text/css">
	.st0{fill:#FFFFFF;}
	.st1{fill:#D35375;}
	.st2{fill:#E5E5E5;}
	.st3{fill:none;stroke:#4D4D61;stroke-width:3;stroke-linecap:round;stroke-linejoin:round;stroke-miterlimit:10;}
	.st4{fill:#4D4D61;}
	.st5{fill:#56566D;}
	.st6{fill:#F7E3CB;}
	.st7{fill:#EDD6BC;}
	.st8{fill:#FFD680;}
	.st9{fill:none;stroke:#4D4D61;stroke-width:2;stroke-linecap:round;stroke-linejoin:round;stroke-miterlimit:10;}
	.st10{fill:#EABD6C;}
	.st11{fill:#CA4361;}
	.st12{fill:#595D5C;}
	.st13{fill:#9B8462;}
	.st14{fill:#E1C885;}
	.st15{fill:#A3886C;}
	.st16{fill:none;stroke:#4D4D61;stroke-width:2;stroke-miterlimit:10;}
	.st17{fill:#B0977A;}
	.st18{fill:#475C80;}
	.st19{opacity:0.57;fill:#6987AF;}
	.st20{opacity:0.44;fill:#66667C;}
	.st21{fill:#B98C78;}
	.st22{fill:#C9A08F;}
	.st23{fill:#575770;}
	.st24{fill:#83ABBA;}
	.st25{fill:#92B4C3;}
	.st26{fill:#ACD3E5;}
	.st27{opacity:0.74;fill:#E1C885;}
	.st28{fill:#9EC0CC;}
</style>
<ellipse class="st2" cx="500" cy="710.6" rx="303.5" ry="28.4"/>
<path class="st3" d="m620.5 675.9c8.9 0 16.1-7.2 16.1-16.1v-24.6c0-8.9-7.2-16.1-16.1-16.1s-16.1 7.2-16.1 16.1v24.6c0 8.9 7.2 16.1 16.1 16.1z"/>
<path class="st4" d="m620.5 675.9c8.9 0 16.1-7.2 16.1-16.1v-24.6c0-8.9-7.2-16.1-16.1-16.1s-16.1 7.2-16.1 16.1v24.6c0 8.9 7.2 16.1 16.1 16.1z"/>
<path class="st5" d="m608.9 665.6v-24.6c0-8.9 7.2-16.1 16.1-16.1 3.9 0 7.4 1.4 10.2 3.6-2.5-5.6-8.1-9.5-14.7-9.5-8.9 0-16.1 7.2-16.1 16.1v24.6c0 5.1 2.3 9.6 6 12.5-1-1.9-1.5-4.2-1.5-6.6z"/>
<ellipse class="st4" cx="620.3" cy="622.4" rx="8.9" ry="3.2"/>
<path class="st4" d="m620.5 622.4c3.3 0 6-2.7 6-6v-27.7c0-2.8-2.3-5.1-5.1-5.1h-1.7c-2.8 0-5.1 2.3-5.1 5.1v27.7c-0.1 3.3 2.6 6 5.9 6z"/>
<path class="st3" d="m620.5 622.4c3.3 0 6-2.7 6-6v-27.8c0-2.8-2.2-5-5-5h-1.9c-2.8 0-5 2.2-5 5v27.8c-0.1 3.3 2.6 6 5.9 6z"/>
<path class="st2" d="m494.5 377.4h-17.1c-3.2 0-5.8-2.6-5.8-5.8s2.6-5.8 5.8-5.8h7.2c5.7 0 10.3-4.6 10.3-10.3s-4.6-10.3-10.3-10.3h-22.6c-0.9 0-1.7-0.8-1.7-1.7s0.8-1.7 1.7-1.7h2.5c1 0 1.8-0.8 1.8-1.8s-0.8-1.8-1.8-1.8h-17.7c-1.2 0-2.2 1-2.2 2.2s1 2.2 2.2 2.2h6.9c2 0 3.7 1.7 3.7 3.7s-1.7 3.7-3.7 3.7h-3.3c-4.7 0-8.6 3.8-8.6 8.6s3.8 8.6 8.6 8.6h7c1.6 0 2.9 1.3 2.9 2.9s-1.3 2.9-2.9 2.9h-2.7c-3.1 0-5.6 2.5-5.6 5.6s2.5 5.6 5.6 5.6h36.5c2 0 3.7 1.7 3.6 3.7l-0.1 2.8h7.3v-5.8c-0.2-4.2-3.5-7.5-7.5-7.5zm-23.7-21.7c0-0.9 0.7-1.7 1.7-1.7h9.9c0.9 0 1.7 0.7 1.7 1.7 0 0.9-0.7 1.7-1.7 1.7h-9.9c-1-0.1-1.7-0.8-1.7-1.7z"/>
<path class="st2" d="m441.5 337.8h-3c-1.1 0-2-0.9-2-2s0.9-2 2-2h3c1.1 0 2 0.9 2 2s-0.9 2-2 2z"/>
	<path class="st4" d="m682.2 562.9-4.2-6.9c-0.9-1.5-0.4-3.5 1.1-4.5 1.5-0.9 3.5-0.4 4.5 1.1l4.2 6.9c0.9 1.5 0.4 3.5-1.1 4.5-1.6 1-3.6 0.5-4.5-1.1z"/>
	<path class="st4" d="m690.2 560.3-6.8-4.3c-1.5-1-2-3-1-4.5s3-2 4.5-1l6.8 4.3c1.5 1 2 3 1 4.5-0.9 1.5-2.9 1.9-4.5 1z"/>
	<path class="st4" d="m695.7 554.9-8-1.1c-1.8-0.2-3-1.9-2.8-3.7s1.9-3 3.7-2.8l8 1.1c1.8 0.2 3 1.9 2.8 3.7-0.3 1.8-1.9 3-3.7 2.8z"/>
	<path class="st4" d="m698.5 548.3-8 1.1c-1.8 0.3-3.4-1-3.7-2.8s1-3.4 2.8-3.7l8-1.1c1.8-0.3 3.4 1 3.7 2.8 0.2 1.8-1 3.4-2.8 3.7z"/>
	<path class="st4" d="m699.7 541.5-7.7 2.4c-1.7 0.5-3.5-0.4-4.1-2.2-0.5-1.7 0.4-3.5 2.2-4.1l7.7-2.4c1.7-0.5 3.5 0.4 4.1 2.2 0.4 1.8-0.5 3.6-2.2 4.1z"/>
	<path class="st4" d="m699.9 534.5-7.5 2.9c-1.7 0.6-3.6-0.2-4.2-1.9s0.2-3.6 1.9-4.2l7.5-2.9c1.7-0.6 3.6 0.2 4.2 1.9s-0.2 3.5-1.9 4.2z"/>
	<path class="st4" d="m699.7 527.5-7.2 3.7c-1.6 0.8-3.6 0.2-4.4-1.4s-0.2-3.6 1.4-4.4l7.2-3.7c1.6-0.8 3.6-0.2 4.4 1.4s0.2 3.6-1.4 4.4z"/>
	<path class="st4" d="m699.1 522.8-7.2 3.7c-1.6 0.8-3.6 0.2-4.4-1.4s-0.2-3.6 1.4-4.4l7.2-3.7c1.6-0.8 3.6-0.2 4.4 1.4s0.2 3.6-1.4 4.4z"/>
<path class="st3" d="m507.1 396.8c-7.3 0-13.2 5.9-13.2 13.2s5.9 13.2 13.2 13.2 13.2-5.9 13.2-13.2-5.9-13.2-13.2-13.2zm0 21.3c-4.4 0-8-3.6-8-8s3.6-8 8-8 8 3.6 8 8-3.6 8-8 8z"/>
<path class="st6" d="m518 403.1h-11.4c-3 0-5 3.2-3.5 5.9 2.1 4 6.4 6.8 11.3 6.8h1.3v15h13.7v-16.4c-0.1-6.2-5.2-11.3-11.4-11.3z"/>
<path class="st7" d="m518 403.1h-5.7c6.3 0 11.4 5.1 11.4 11.4v16.4h5.7v-16.4c-0.1-6.3-5.2-11.4-11.4-11.4z"/>
<path class="st3" d="m518 403.1h-12.9c-2.1 0-3.5 2-2.9 3.9 1.7 5.1 6.5 8.8 12.1 8.8h1.3v15h13.7v-16.4c0-6.2-5.1-11.3-11.3-11.3z"/>
<path class="st8" d="m479.5 428.9h19.2c4.2 0 7.7-3.4 7.7-7.7v-29.9h-34.6v29.9c0 4.2 3.4 7.7 7.7 7.7z"/>
<path class="st9" d="m471.8 418.1h4.5c6.2 0 11.1-5 11.1-11.1v-4.3l2.3 1.8"/>
<path class="st10" d="m496.3 391.2v29.9c0 4.2-3.4 7.7-7.7 7.7h10c4.2 0 7.7-3.4 7.7-7.7v-29.9h-10z"/>
<path class="st3" d="m479.5 428.9h19.2c4.2 0 7.7-3.4 7.7-7.7v-29.9h-34.6v29.9c0 4.2 3.4 7.7 7.7 7.7z"/>
<polygon class="st11" points="564.7 431.9 569.7 442.2 577.1 437.1"/>
<polygon class="st9" points="564.7 431.9 569.7 442.2 577.1 437.1"/>
<rect class="st6" transform="matrix(-.8495 .5276 -.5276 -.8495 1361.4 845.42)" x="552.1" y="562.9" width="16.1" height="108.1"/>
<rect class="st3" transform="matrix(-.8495 .5276 -.5276 -.8495 1361.4 845.42)" x="552.1" y="562.9" width="16.1" height="108.1"/>
<polygon class="st6" points="375.6 640 481.5 554.8 491.7 567.1 385.8 652.4"/>
<polygon class="st7" points="387.2 630.7 396.9 643.5 406.5 636 396.8 622.9"/>
<polygon class="st3" points="375.6 640 481.5 554.8 491.7 567.1 385.8 652.4"/>
<path class="st3" d="m603.5 431.9-7.6-8.8c-3.2-3.7-8.8-4.1-12.5-1-3.8 3.2-4.2 8.9-1 12.6l7.6 8.8c12 13.9 10.5 35-3.5 47-13.9 12-35 10.5-47-3.5-5.2-6.1-8.1-13.8-8.1-21.8v-36.2h-17.8v36.3c0 12.3 4.4 24.1 12.4 33.4 18.5 21.4 50.8 23.8 72.2 5.3 21.4-18.3 23.7-50.7 5.3-72.1z"/>
<path class="st11" d="m574.8 437.1s11.5 11.5 18.9 21.9c7.3 10.3 12.7 24 12.7 26.7 4.2 2.7 5.3 4.2 6 3.5s0.7-4.7 0.7-8.2c0-3.6-32.5-47.8-38.3-43.9z"/>
<path class="st9" d="m574.8 437.1s11.5 11.5 18.9 21.9c7.3 10.3 12.7 24 12.7 26.7 4.2 2.7 5.3 4.2 6 3.5s0.7-4.7 0.7-8.2c0-3.6-32.5-47.8-38.3-43.9z"/>
<path class="st12" d="m609.8 669.3-78.1 23.7c-1.4 0.4-2.9-0.4-3.4-1.8l-0.1-0.2c-0.4-1.4 0.4-2.9 1.8-3.4l78.1-23.7c1.4-0.4 2.9 0.4 3.4 1.8l0.1 0.2c0.4 1.5-0.4 3-1.8 3.4z"/>
<path class="st3" d="m609.8 669.3-78.1 23.7c-1.4 0.4-2.9-0.4-3.4-1.8l-0.1-0.2c-0.4-1.4 0.4-2.9 1.8-3.4l78.1-23.7c1.4-0.4 2.9 0.4 3.4 1.8l0.1 0.2c0.4 1.5-0.4 3-1.8 3.4z"/>
<path class="st13" d="m597.3 649.2-0.3 0.1c-1.7 3-5.3 5.7-9.9 7.1-3.4 1-6.8 1.2-9.6 0.5-2.5-0.6-5.1-0.7-7.6 0l-30.8 8.6c-3.7 1-6.6 3.8-8.1 7.7l-3.3 8.6c-1.1 2.9 1.4 6.2 4.1 5.4l75.6-23-3.2-10.4c-1-3.3-4.1-5.3-6.9-4.6z"/>
<path class="st14" d="m531 673.3-0.5 1.4c2.6 2 6.1 2.8 9.6 1.8l47.2-14.4c4.5-1.4 7.3-5.4 7.4-9.9-1.9 1.8-4.5 3.3-7.5 4.2-3.4 1-6.8 1.2-9.6 0.5-2.5-0.6-5.1-0.7-7.6 0l-30.8 8.6c-3.8 1-6.7 3.8-8.2 7.8z"/>
<path class="st3" d="m597.3 649.2-0.3 0.1c-1.7 3-5.3 5.7-9.9 7.1-3.4 1-6.8 1.2-9.6 0.5-2.5-0.6-5.1-0.7-7.6 0l-30.8 8.6c-3.7 1-6.6 3.8-8.1 7.7l-3.3 8.6c-1.1 2.9 1.4 6.2 4.1 5.4l75.6-23-3.2-10.4c-1-3.3-4.1-5.3-6.9-4.6z"/>
<polygon class="st3" points="569.9 665.9 575.2 656.5 571.2 656.6"/>
<path class="st6" d="m555 411.2c42.6 26.6 71.9 69.5 81.7 118.1h13.8c-7.8-49.6-35.9-93.8-77.8-122"/>
<path class="st3" d="m638.1 581.1 11.1-7.2h-56.1l11.1 7.2c10.4 6.7 23.6 6.7 33.9 0z"/>
<path class="st4" d="m638.1 581.1 11.1-7.2h-56.1l11.1 7.2c10.4 6.7 23.6 6.7 33.9 0z"/>
<path class="st6" d="m569.5 408.8c11.5-4.8 19.7-16.2 19.7-29.5v-10.8h2.2c7.6 0 13.8-6.2 13.8-13.8s-5.3-14.7-13-14.7l-3.7 0.3 0.6-17c0-17.7-14.3-32-32-32s-32 14.3-32 32v17.5h-9.5c-2.9 0-5.3 2.4-5.3 5.3 0 7.8 6.3 14.2 14.2 14.2h0.7v19c0 16.9 13.2 30.8 29.8 31.9"/>
<path class="st11" d="m671.4 554.6h-107.9c-0.4 0-0.7 0-1.1 0.1-8.3 0.6-14.8 7.9-14.2 16.5 0.5 7.7 6.9 14 14.7 14.4 3.1 0.1 6-0.6 8.4-2 10.2-5.9 21.6-9.5 33.5-9.5h66.6c5.3 0 9.6-4.3 9.6-9.6 0.1-5.5-4.3-9.9-9.6-9.9z"/>
<path class="st1" d="m564.8 576.5c-0.6-8.6 5.9-15.8 14.2-16.5 0.3 0 0.7-0.1 1.1-0.1h100c-1.6-3.2-4.8-5.3-8.6-5.3h-108c-0.4 0-0.7 0-1.1 0.1-8.3 0.6-14.8 7.9-14.2 16.5 0.5 7.7 6.9 14 14.7 14.4 1.8 0.1 3.5-0.1 5.1-0.6-1.8-2.5-3-5.4-3.2-8.5z"/>
<path class="st3" d="m671.4 554.6h-107.9c-0.4 0-0.7 0-1.1 0.1-8.3 0.6-14.8 7.9-14.2 16.5 0.5 7.7 6.9 14 14.7 14.4 3.1 0.1 6-0.6 8.4-2 10.2-5.9 21.6-9.5 33.5-9.5h66.6c5.3 0 9.6-4.3 9.6-9.6 0.1-5.5-4.3-9.9-9.6-9.9z"/>
<rect class="st4" transform="matrix(-.3682 .9297 -.9297 -.3682 1510.8 323.6)" x="641.8" y="659.1" width="7.4" height="32"/>
<path class="st4" d="m584.8 684.4-2.7-6.8 26.3-10.4c1.9-0.7 4 0.2 4.8 2.1 0.7 1.9-0.2 4-2.1 4.8l-26.3 10.3z"/>
<path class="st15" d="m604.8 357.5-4.6 24.6c-1.9 9.9-11 16.7-21 15.5h-0.1l11.8-49.7 13.9 9.6z"/>
<path class="st3" d="m604.8 357.5-4.6 24.6c-1.9 9.9-11 16.7-21 15.5h-0.1l11.8-49.7 13.9 9.6z"/>
<path class="st7" d="m525.1 362v-2.3c0-3.2-2.8-5.6-5.9-5l-3.7 1.3 9.6 6z"/>
<path class="st7" d="m590.9 340.8h-1.8v-17.1c-7.7 11.9-19.7 27.6-19.7 27.6v21.5c0 15.7-12.7 28.4-28.4 28.4h-7.3c5.8 6.2 14.1 10.1 23.3 10.1 17.7 0 32-14.3 32-32v-10.8h2.2c7.9 0 14.2-6.6 13.8-14.5-0.2-7.5-6.7-13.2-14.1-13.2z"/>
<path class="st3" d="m572.7 407.3c9.8-5.5 16.5-15.9 16.5-28v-10.8h2.2c7.6 0 13.8-6.2 13.8-13.8s-5.3-14.7-13-14.7l-3.7 0.3 0.6-17c0-17.7-14.3-32-32-32s-32 14.3-32 32v17.5h-9.5c-2.9 0-5.3 2.4-5.3 5.3 0 7.8 6.3 14.2 14.2 14.2h0.7v19c0 16.9 13.2 30.8 29.8 31.9"/>
<circle class="st16" cx="537.6" cy="333.8" r="2"/>
<path class="st9" d="m556.5 354.2v16.2c0 10.3-8.4 18.7-18.7 18.7-7 0-12.6-5.7-12.6-12.6"/>
<line class="st9" x1="554.7" x2="558.3" y1="353.3" y2="355.2"/>
<polygon class="st17" points="541.7 315 538.1 322 552.2 330.6 553.1 324.6"/>
<path class="st15" d="m541.7 315-1.1 2.2c3.9 1.1 6.8 4.5 6.8 8.7 0 0.6-0.1 1.2-0.2 1.7l5 3.1 0.9-6-11.4-9.7z"/>
<polygon class="st9" points="541.7 315 538.1 322 552.2 330.6 553.1 324.6"/>
<path class="st17" d="m610.4 305.7c3.4 2.1 4.9 2.7 8.2 2.7-5.7-8-7.1-23.7-15.6-33.6-3.8-4.5-8.1-9.4-16.3-11.9-14.1-4.2-27.4 0.5-29.1 1.4-10.3 5.5-20.6 18.1-17.6 28.9 0.3 1.2-0.7 2 0 2.9 11.3-8.6 29.1-6 37.5 5.6 6.7 9.2 4.9 24.2-1.6 32.8-1.9 1.9-2.7 8.3-5.5 14.7l7.5-4.6c7.7-4.7 19.3-3.3 25.7 3.1 1.1 1.9 1.8 3.9 2.1 5.9 0.8-0.5 1.8-1.1 3-2.1 7.4-6.2 8.7-15.6 9-18 2.2-14.2-5.7-26-7.3-27.8z"/>
<path class="st15" d="m618.7 308.5c-5.7-8-7.1-23.7-15.6-33.6-3.3-3.9-7-8.2-13.4-10.8 7 8.1 11.3 18.7 11.3 30.3 0 18.2-10.5 33.9-25.8 41.5-1.4 2.7-2.3 8.1-4.7 13.5l7.5-4.6c7.7-4.7 19.3-3.3 25.7 3.1 1.1 1.9 1.8 3.9 2.1 5.9 0.8-0.5 1.8-1.1 3-2.1 7.4-6.2 8.7-15.6 9-18 2-14.3-6-26.2-7.5-27.9 3.6 2.1 5.1 2.7 8.4 2.7z"/>
<path class="st3" d="m610.4 305.7c3.4 2.1 4.9 2.7 8.2 2.7-5.7-8-7.1-23.7-15.6-33.6-3.8-4.5-8.1-9.4-16.3-11.9-14.1-4.2-27.4 0.5-29.1 1.4-10.3 5.5-20.6 18.1-17.6 28.9 0.3 1.2-0.7 2 0 2.9 11.3-8.6 29.1-6 37.5 5.6 6.7 9.2 4.9 24.2-1.6 32.8-1.9 1.9-2.7 8.3-5.5 14.7l11.3-6.8c7.5-4.6 17.4-2.2 21.9 5.4 1.1 1.9 1.8 3.9 2.1 5.9 0.8-0.5 1.8-1.1 3-2.1 7.4-6.2 8.7-15.6 9-18 2.2-14.3-5.7-26.1-7.3-27.9z"/>
<line class="st9" x1="585" x2="596.9" y1="349.9" y2="358.4"/>
<line class="st9" x1="595.4" x2="586.9" y1="347.9" y2="359.8"/>
<path class="st9" d="m527.4 356.5 1.1 1s2-2.1 4.6-1c-0.7-1.4-6.5-2.1-5.7 0z"/>
<path class="st3" d="m555 411.2c42.6 26.6 71.9 69.5 81.7 118.1h13.8c-7.8-49.6-35.9-93.8-77.8-122"/>
<rect class="st18" transform="matrix(-.5277 -.8495 .8495 -.5277 328.57 1371.5)" x="487.6" y="582.3" width="116.1" height="24.1"/>
<path class="st19" d="m516.8 571.6 44.1 70.3c2.8-1.8 11.3 2.1 9.5-0.7l-40.3-60.3c-1.8-2.8-9.5-10.1-12.4-8.3l-0.9-1z"/>
<path class="st4" d="m514.9 567.8s18.9-5.9 25.4-4.7c-6.6-12.7-9-15.2-9-15.2l-25.3 8.2 8.9 11.7z"/>
<rect class="st3" transform="matrix(-.5277 -.8495 .8495 -.5277 328.57 1371.5)" x="487.6" y="582.3" width="116.1" height="24.1"/>
<path class="st18" d="m468.1 559.2-77.1 63.6 15.3 18.6 70.4-58.1c22.6-18.7 51.1-28.9 80.4-28.9h87.3c6.6 0 12-5.4 12-12v-12h-108c-29.3-0.1-57.7 10.1-80.3 28.8z"/>
<path class="st19" d="m395.8 618.8 6.8 9.5 80.5-72.1-4.1-5.1c-3.8 2.5-7.4 5.2-10.9 8.1l-72.3 59.6z"/>
<path class="st19" d="m531 536.5 90.1 1.2c4.7 0 20.5-2.8 20.5-7.5h-93c-9.6 0-39.8 4.7-50.9 10.7-2.9 1.6 19.8-4.4 33.3-4.4z"/>
<path class="st3" d="m468.1 559.2-77.1 63.6 15.3 18.6 70.4-58.1c22.6-18.7 51.1-28.9 80.4-28.9h87.3c6.6 0 12-5.4 12-12v-12h-108c-29.3-0.1-57.7 10.1-80.3 28.8z"/>
<path class="st2" d="m656.5 529.3c-6.9-45-30.2-86.1-64.9-115.2l-21.9 15.2c31.1 25.4 52.6 60.8 60.8 100h26z"/>
<path class="st0" d="m630.5 529.3h11c-8.5-41.4-30.9-78.9-63.2-106l-8.6 6c31.1 25.3 52.6 60.8 60.8 100z"/>
<path class="st3" d="m656.5 529.3c-6.9-45-30.2-86.1-64.9-115.2l-21.9 15.2c31.1 25.4 52.6 60.8 60.8 100h26z"/>
<path class="st17" d="m496.7 459.9s-8.3 6.9-7.6-7.3c0.3-6.5 8.8-6.3 8.8-6.3l0.9 6.1-2.1 7.5z"/>
<path class="st3" d="m496.7 459.9s-8.3 6.9-7.6-7.3c0.3-6.5 8.8-6.3 8.8-6.3l0.9 6.1-2.1 7.5z"/>
<path class="st7" d="m521.2 444.5c-4 5.6-10.2 9.2-17.1 9.9-5.2 0.5-5.1-11.5-13.2 2.7-3.2 1.7-7-1.7-8.7-3.7-0.5-0.6-0.5-1.5 0.1-2 1.5-1.3 4.3-4.4 5.6-9.8 0.9-5.2 2.6-9 6.7-6.8 3.6 1.9 26-0.8 26.6 9.7z"/>
<path class="st3" d="m521.2 444.5c-4 5.6-10.2 9.2-17.1 9.9-5.2 0.5-5.1-11.5-13.2 2.7-3.2 1.7-6.9-1.7-8.7-3.6-0.6-0.6-0.5-1.6 0.1-2.1 1.6-1.4 4.3-4.4 5.5-9.8 0.9-5.2 2.6-9 6.7-6.8 3.7 1.9 26.1-0.8 26.7 9.7z"/>
<path class="st7" d="m524.1 456.3s-2.9-8.4-10.7-12.4c-0.8 3.1-4.8 6.2-8.7 7.3l2.2 3.8c1.7 3.1 0.3 7-3 8.1-2.9 1-6-0.4-7.2-3.2l-4.9-14.9s9.6-3.5 12.5-6.5c2-2 6.7-9.5 6.7-9.5s8.7 2.1 14.6 8c4.9 4.9 9.3 13.2 9.3 13.2l-10.8 6.1z"/>
	<path class="st6" d="m502.5 462.7-4.9-14.9s9.6-3.5 12.5-6.5c2-2 6.7-9.5 6.7-9.5s1.3 0.3 3.3 1.1c-4.7-2.8-9.2-3.9-9.2-3.9s-4.7 7.5-6.7 9.5c-3 2.9-12.5 6.5-12.5 6.5l4.9 14.9c1 2.5 3.6 3.9 6.2 3.4l-0.3-0.6z"/>
	<path class="st6" d="m519.2 446.7c-0.1 0.4-0.3 0.8-0.5 1.2 3.8 4 5.4 8.4 5.4 8.4l3.4-1.9c-1.7-2.6-4.4-5.7-8.3-7.7z"/>
<path class="st3" d="m524.1 456.3s-2.9-8.4-10.7-12.4c-0.8 3.1-4.8 6.2-8.7 7.3l2.2 3.8c1.7 3.1 0.3 7-3 8.1-2.9 1-6-0.4-7.2-3.2l-4.9-14.9s9.6-3.5 12.5-6.5c2-2 6.7-9.5 6.7-9.5s8.7 2.1 14.6 8c4.9 4.9 9.3 13.2 9.3 13.2l-10.8 6.1z"/>
<path class="st9" d="m496.7 457.1 3-0.9s1.5 1.5 1.5 2.9-3.5 2.5-3.5 2.5-2.3-3.3-1-4.5z"/>
<path class="st9" d="m485 448.8 2.4 2s-0.4 2.1-1.6 2.8c-1.1 0.7-4-1.5-4-1.5s1.5-3.7 3.2-3.3z"/>
<path class="st2" d="m536.6 448 25.5 48.9c3.7 7.1 9.8 12.6 17.3 15.6 17.1 6.8 36.5-1.6 43.3-18.7s-1.6-36.5-18.7-43.3l-10.8-4.3c-4.6-1.8-6.8-7.1-5-11.6s7-6.7 11.6-4.9l10.8 4.3c26.3 10.4 39.1 40.2 28.7 66.4-10.4 26.3-40.2 39.1-66.4 28.7-11.4-4.5-20.8-13-26.5-23.9l-25.1-48.1 15.3-9.1z"/>
<polygon class="st2" points="543.5 461.2 536.6 448 521.2 457.1 528 470.1"/>
<path class="st0" d="m521.2 457.1 25.1 48.1c0.9 1.7 1.9 3.4 3 5-0.6-3.5 3 4 3 4l-25.6-60.5-5.5 3.4z"/>
<polygon class="st3" points="543.5 461.2 536.6 448 521.2 457.1 528 470.1"/>
	<path class="st0" d="m589.5 440.3c1.8-4.5 7-6.7 11.6-4.9l10.8 4.3c15.4 6.1 26.2 18.9 30.4 33.8-2.8-17.2-14.3-32.6-31.6-39.5l-10.8-4.3c-4.6-1.8-9.7 0.4-11.6 4.9-1.1 2.7-0.8 5.7 0.7 8 0-0.8 0.2-1.5 0.5-2.3z"/>
	<path class="st0" d="m537.9 450.5 20.9 47.7c5.3 9.6 11.8 17.1 19.2 20 17.1 6.8 39-1.6 45.8-18.7 2.9-7.4 3-15.2 0.8-22.2 0.7 5.4 0.1 11.1-2.1 16.5-6.8 17.1-26.2 25.5-43.3 18.7-7.4-3-13.6-8.5-17.3-15.6l-25.3-48.9"/>
<path class="st3" d="m536.6 448 25.5 48.9c3.7 7.1 9.8 12.6 17.3 15.6 17.1 6.8 36.5-1.6 43.3-18.7s-1.6-36.5-18.7-43.3l-10.8-4.3c-4.6-1.8-6.8-7.1-5-11.6s7-6.7 11.6-4.9l10.8 4.3c26.3 10.4 39.1 40.2 28.7 66.4-10.4 26.3-40.2 39.1-66.4 28.7-11.4-4.5-20.8-13-26.5-23.9l-25.1-48.1 15.3-9.1z"/>
<polygon class="st2" points="592 411.3 575.9 439.2 557.7 427.2 584.6 408.3"/>
<path class="st0" d="m578.5 412.6-20.8 14.6 8.2 5.4c0.1-0.1 0.2-0.1 0.3-0.2 9.1-5 14.3-13.5 12.3-19.8z"/>
<polygon class="st3" points="592 411.3 575.9 439.2 557.7 427.2 584.6 408.3"/>
<circle class="st5" cx="569.8" cy="684.8" r="19.6"/>
<path class="st20" d="m558.5 694.6c0-10.8 8.8-19.6 19.6-19.6 3.6 0 7 1 9.9 2.7-2.9-7.3-10-12.5-18.3-12.5-10.8 0-19.6 8.8-19.6 19.6 0 7.2 3.9 13.5 9.7 16.9-0.8-2.2-1.3-4.6-1.3-7.1z"/>
<circle class="st3" cx="569.8" cy="684.8" r="19.6"/>
<circle class="st3" cx="569.8" cy="684.8" r="9.7"/>
<circle class="st4" cx="569.8" cy="684.8" r="9.7"/>
<path class="st11" d="m592.6 675.1c-3.3 0-6.3-1.4-8.6-3.8-3.6-3.8-8.6-6.1-14.2-6.1-5.5 0-10.4 2.2-14 5.9-2.5 2.5-5.7 4-9.2 4h-0.1c3.8-9.1 12.8-15.5 23.3-15.5s19.5 6.4 23.3 15.5h-0.5z"/>
<path class="st1" d="m563.7 660.3c-7.8 1.9-14.1 7.5-17.2 14.8h0.1c3.4 0 6.6-1.3 8.9-3.7 2-2.1 6.1-3.8 9.4-4.8 2.9-0.9 3.1-5.1 0.2-6.1-0.3-0.2-0.9-0.3-1.4-0.2z"/>
<path class="st3" d="m592.6 675.1c-3.3 0-6.3-1.4-8.6-3.8-3.6-3.8-8.6-6.1-14.2-6.1-5.5 0-10.4 2.2-14 5.9-2.5 2.5-5.7 4-9.2 4h-0.1c3.8-9.1 12.8-15.5 23.3-15.5s19.5 6.4 23.3 15.5h-0.5z"/>
<circle class="st5" cx="674.9" cy="684.8" r="19.6"/>
<path class="st20" d="m664.3 694.6c0-10.8 8.8-19.6 19.6-19.6 3.6 0 7 1 9.9 2.7-2.9-7.3-10-12.5-18.3-12.5-10.8 0-19.6 8.8-19.6 19.6 0 7.2 3.9 13.5 9.7 16.9-0.8-2.2-1.3-4.6-1.3-7.1z"/>
<circle class="st3" cx="674.9" cy="684.8" r="19.6"/>
<rect class="st3" x="307.8" y="523.2" width="13.6" height="186.7"/>
<rect class="st4" x="307.8" y="523.2" width="13.6" height="186.7"/>
<circle class="st3" cx="674.9" cy="684.8" r="9.7"/>
<path class="st11" d="m697.7 675.1c-3.3 0-6.3-1.4-8.6-3.8-3.6-3.8-8.6-6.1-14.2-6.1-5.5 0-10.4 2.2-14 5.9-2.5 2.5-5.7 4-9.2 4h-0.1c3.8-9.1 12.8-15.5 23.3-15.5s19.5 6.4 23.3 15.5h-0.5z"/>
<circle class="st4" cx="674.9" cy="684.8" r="9.7"/>
<path class="st3" d="m697.7 675.1c-3.3 0-6.3-1.4-8.6-3.8-3.6-3.8-8.6-6.1-14.2-6.1-5.5 0-10.4 2.2-14 5.9-2.5 2.5-5.7 4-9.2 4h-0.1c3.8-9.1 12.8-15.5 23.3-15.5s19.5 6.4 23.3 15.5h-0.5z"/>
<path class="st21" d="m537.8 504.6h-293.6c-2.4 0-4.3-1.9-4.3-4.3v-8.1c0-2.4 1.9-4.3 4.3-4.3h293.6c2.4 0 4.3 1.9 4.3 4.3v8.1c0 2.4-1.9 4.3-4.3 4.3z"/>
<path class="st22" d="m351.9 497.1c-42.7 0-81.1 2.9-107.4 7.5h214.9c-26.4-4.6-64.8-7.5-107.5-7.5z"/>
<path class="st3" d="m537.8 504.6h-293.6c-2.4 0-4.3-1.9-4.3-4.3v-8.1c0-2.4 1.9-4.3 4.3-4.3h293.6c2.4 0 4.3 1.9 4.3 4.3v8.1c0 2.4-1.9 4.3-4.3 4.3z"/>
<path class="st3" d="m506.1 526h-230.3c-5.9 0-10.7-4.8-10.7-10.7s4.8-10.7 10.7-10.7h230.3c5.9 0 10.7 4.8 10.7 10.7s-4.8 10.7-10.7 10.7z"/>
<path class="st4" d="m506.1 526h-230.3c-5.9 0-10.7-4.8-10.7-10.7s4.8-10.7 10.7-10.7h230.3c5.9 0 10.7 4.8 10.7 10.7s-4.8 10.7-10.7 10.7z"/>
<path class="st23" d="m361 521c-32.9 0-61.1 2.1-73.5 5h147c-12.4-3-40.6-5-73.5-5z"/>
<circle class="st24" cx="365.1" cy="465.1" r="6.5"/>
<circle class="st3" cx="365.1" cy="465.1" r="6.5"/>
<path class="st25" d="m363.2 462.5 0.5-0.1-24.5-136.1-0.5 0.1c-4.7 0.9-7.9 5.4-7 10.1l21.4 119c0.8 4.7 5.3 7.8 10.1 7z"/>
<path class="st26" d="m352.7 453.4c0-15.5-1.4-32.3-4.5-49.6-3.2-18.1-7.9-35.1-13.5-50.1l18 99.7z"/>
<path class="st3" d="m363.2 462.5 0.5-0.1-24.5-136.1-0.5 0.1c-4.7 0.9-7.9 5.4-7 10.1l21.4 119c0.8 4.7 5.3 7.8 10.1 7z"/>
<rect class="st3" x="467.6" y="524" width="13.6" height="186.7"/>
<rect class="st4" x="467.6" y="524" width="13.6" height="186.7"/>
<path class="st25" d="m377.7 480.9h125c6.1 0 11.1-5 11.1-11.1v-4.7h-147.2v4.7c0 6.1 5 11.1 11.1 11.1z"/>
<path class="st24" d="m502.7 477.4h-125c-6.1 0-11.1-5-11.1-11.1v3.5c0 6.1 5 11.1 11.1 11.1h125c6.1 0 11.1-5 11.1-11.1v-3.5c0 6.1-5 11.1-11.1 11.1z"/>
<path class="st3" d="m377.7 480.9h125c6.1 0 11.1-5 11.1-11.1v-4.7h-147.2v4.7c0 6.1 5 11.1 11.1 11.1z"/>
<rect class="st3" transform="matrix(-1 -5.1355e-11 5.1355e-11 -1 880.4 968.72)" x="385.1" y="480.9" width="110.2" height="7"/>
<rect class="st4" transform="matrix(-1 -5.1355e-11 5.1355e-11 -1 880.4 968.72)" x="385.1" y="480.9" width="110.2" height="7"/>
<rect class="st9" transform="matrix(-1 -4.4808e-11 4.4808e-11 -1 890.6 942.36)" x="440.3" y="469.5" width="9.9" height="3.3"/>
<rect class="st9" transform="matrix(-1 -4.5542e-11 4.5542e-11 -1 862.39 942.36)" x="426.2" y="469.5" width="9.9" height="3.3"/>
<circle class="st9" cx="379.5" cy="471.2" r="1.8"/>
<path class="st11" d="m732 413.8c1.5-11.5-6.7-22-18.3-23.1-11.1-1.1-20.9 7.1-22.4 18.2l-13.7 101.9c-0.6 4.6 2.6 8.8 7.2 9.4l12.1 1.6c4.6 0.6 8.8-2.6 9.4-7.2l2-15c3.7-27.5 10.5-54.7 22.1-79.9 0.7-1.8 1.3-3.8 1.6-5.9z"/>
<path class="st1" d="m704.2 499.6-2 15c-0.5 3.5-3.1 6.3-6.4 7l1.1 0.1c4.6 0.6 8.8-2.6 9.4-7.2l2-15c3.7-27.5 10.5-54.7 22.1-79.9 0.8-1.8 1.4-3.8 1.7-5.8 1.5-11.5-6.7-22-18.3-23.1-1.3-0.1-2.7-0.1-3.9 0 11.6 1.2 19.8 11.7 18.3 23.1-0.3 2.1-0.9 4-1.7 5.8"/>
<path class="st1" d="m691.3 408.9-10.6 79c9.2-26.3 18.1-54.6 18.1-76.6 0-14.9 18.1-19.9 23.1-14.9-3.3-6.1-13.8-6.7-19.5-3.4-6.2 3.5-10.5 11-11.1 15.9z"/>
<path class="st3" d="m732 413.8c1.5-11.5-6.7-22-18.3-23.1-11.1-1.1-20.9 7.1-22.4 18.2l-13.7 101.9c-0.6 4.6 2.6 8.8 7.2 9.4l12.1 1.6c4.6 0.6 8.8-2.6 9.4-7.2l2-15c3.7-27.5 10.5-54.7 22.1-79.9 0.7-1.8 1.3-3.8 1.6-5.9z"/>
<path class="st12" d="m389 672.5-68.6-44.2c-1.3-0.8-1.6-2.5-0.8-3.7l0.1-0.2c0.8-1.3 2.5-1.6 3.7-0.8l68.6 44.2c1.3 0.8 1.6 2.5 0.8 3.7l-0.1 0.2c-0.7 1.2-2.4 1.6-3.7 0.8z"/>
<path class="st3" d="m389 672.5-68.6-44.2c-1.3-0.8-1.6-2.5-0.8-3.7l0.1-0.2c0.8-1.3 2.5-1.6 3.7-0.8l68.6 44.2c1.3 0.8 1.6 2.5 0.8 3.7l-0.1 0.2c-0.7 1.2-2.4 1.6-3.7 0.8z"/>
<path class="st13" d="m396.3 650-0.3-0.2c-3.4 0.6-7.8-0.4-11.8-3-3-1.9-5.3-4.5-6.6-7-1.2-2.3-2.8-4.4-4.9-5.8l-26.5-17.9c-3.1-2.1-7.2-2.5-11.1-1.2l-8.6 3c-2.9 1-3.8 5.1-1.5 6.6l66.4 42.8 5.9-9.2c1.8-2.9 1.4-6.5-1-8.1z"/>
<path class="st27" d="m335.1 614.9-1.4 0.5c0.1 3.3 1.8 6.5 4.8 8.5l41.5 26.7c3.9 2.5 8.9 2.1 12.3-0.7-2.6-0.3-5.4-1.3-8.1-3-3-1.9-5.3-4.5-6.6-7-1.2-2.3-2.8-4.4-4.9-5.8l-26.5-17.9c-3.1-2.3-7.2-2.7-11.1-1.3z"/>
<path class="st3" d="m396.3 650-0.3-0.2c-3.4 0.6-7.8-0.4-11.8-3-3-1.9-5.3-4.5-6.6-7-1.2-2.3-2.8-4.4-4.9-5.8l-26.5-17.9c-3.1-2.1-7.2-2.5-11.1-1.2l-8.6 3c-2.9 1-3.8 5.1-1.5 6.6l66.4 42.8 5.9-9.2c1.8-2.9 1.4-6.5-1-8.1z"/>
<polygon class="st3" points="365.9 639.8 376.4 637.8 373.7 634.8"/>
<polygon class="st25" points="394.7 611.9 386.4 620.1 406.7 645.6 416.7 637.3"/>
<path class="st28" d="m394.1 612.5-7.7 7.6 11 13.8c1.8-2.6 2.9-5.7 2.9-9 0-5-2.4-9.5-6.2-12.4z"/>
<polygon class="st3" points="394.7 611.9 386.4 620.1 406.7 645.6 416.7 637.3"/>
<polygon class="st25" points="558.5 644.5 564.8 654.4 594 639.8 588 628.3"/>
<polygon class="st25" points="558.5 644.5 564.8 654.4 594 639.8 588 628.3"/>
<path class="st28" d="m569.8 645.7c0-2.2-1.2-4.1-3.2-5.7l-8.1 4.5 5.5 8.6c3.5-1.7 5.8-4.4 5.8-7.4z"/>
<polygon class="st3" points="558.5 644.5 564.8 654.4 594 639.8 588 628.3"/>
<ellipse class="st9" cx="477" cy="404.9" rx=".8" ry="1.3"/>
<path class="st4" d="m394.7 476.1h-5c-1.3 0-2.4-1.1-2.4-2.4v-3c0-1.3 1.1-2.4 2.4-2.4h5c1.3 0 2.4 1.1 2.4 2.4v3c0 1.3-1.1 2.4-2.4 2.4z"/>
</svg>